<?xml version="1.0" encoding="utf-8"?>
<!-- Generator: Adobe Illustrator 18.0.0, SVG Export Plug-In . SVG Version: 6.00 Build 0)  -->
<!DOCTYPE svg PUBLIC "-//W3C//DTD SVG 1.1//EN" "http://www.w3.org/Graphics/SVG/1.1/DTD/svg11.dtd">
<svg version="1.1" id="Layer_1" xmlns="http://www.w3.org/2000/svg" xmlns:xlink="http://www.w3.org/1999/xlink" x="0px" y="0px"
	 viewBox="0 0 426 129.3" enable-background="new 0 0 426 129.3" xml:space="preserve">
<path fill="#FFFFFF" d="M191.2,47.7h-34.9c-1.8,0-3.3,0.2-4.5,0.5c-1.2,0.3-2.1,0.8-2.8,1.5c-0.7,0.7-1.2,1.7-1.5,2.9
	c-0.3,1.2-0.5,2.8-0.5,4.6v10.1c0,1.9,0.1,3.4,0.5,4.7c0.3,1.2,0.8,2.2,1.5,2.9c0.7,0.7,1.6,1.2,2.8,1.5c1.2,0.3,2.7,0.5,4.5,0.5h23
	c1.2,0,2.1-0.3,2.6-0.9c0.6-0.6,0.8-1.7,0.8-3.3v-5.7c0-0.6-0.3-0.9-0.8-0.9h-20.4c-1,0-1.5-0.5-1.5-1.6v-5.2c0-1.1,0.5-1.6,1.5-1.6
	h29.1c1.4,0,2.1,0.7,2.1,2.1V76c0,3.9-0.7,6.7-2.2,8.3c-1.5,1.6-3.6,2.4-6.4,2.4h-28.2c-3.5,0-6.5-0.3-9-1c-2.5-0.7-4.5-1.7-6-3.2
	c-1.6-1.5-2.7-3.4-3.4-5.7c-0.7-2.4-1.1-5.2-1.1-8.6v-12c0-3.4,0.4-6.2,1.1-8.5c0.7-2.3,1.9-4.2,3.4-5.7c1.6-1.5,3.6-2.5,6-3.2
	c2.5-0.7,5.5-1,9-1h35.3c1,0,1.5,0.5,1.5,1.5v6.9C192.7,47.1,192.2,47.7,191.2,47.7L191.2,47.7z M260.9,86.2c-0.1,0.3-0.5,0.5-1,0.5
	H251c-0.8,0-1.3-0.3-1.6-0.9l-4.9-9h-32.8l-4.8,9c-0.3,0.6-0.9,0.9-1.6,0.9h-9.1c-0.6,0-1-0.2-1.1-0.5s-0.1-0.7,0.2-1.2L218.2,43
	c1.2-2.1,2.3-3.5,3.4-4.2c1.1-0.7,2.4-1.1,3.9-1.1h4.1c1.8,0,3.3,0.4,4.5,1.1c1.2,0.7,2.4,2.1,3.6,4.2l23.1,42.1
	C260.9,85.5,261,85.9,260.9,86.2L260.9,86.2z M229,48.1c-0.2-0.3-0.4-0.5-0.8-0.5h-0.4c-0.3,0-0.6,0.2-0.8,0.5l-10.9,20.5h24
	L229,48.1L229,48.1z M274.4,86.7h-7.5c-1.1,0-1.6-0.5-1.6-1.5V39.2c0-1,0.5-1.5,1.6-1.5h7.5c1,0,1.5,0.5,1.5,1.5v45.9
	C275.9,86.2,275.4,86.7,274.4,86.7L274.4,86.7z M341.1,85.2c-1,1-2.6,1.5-4.7,1.5h-6c-1.1,0-2,0-2.7-0.1c-0.7-0.1-1.4-0.3-1.9-0.6
	c-0.6-0.3-1.1-0.7-1.6-1.2c-0.5-0.5-1.1-1.3-1.8-2.2l-26-34.2c-0.3-0.3-0.6-0.5-0.9-0.5h-0.6c-0.4,0-0.6,0.2-0.6,0.7v36.5
	c0,1-0.5,1.5-1.5,1.5h-7.3c-1.1,0-1.6-0.5-1.6-1.5V45c0-2.8,0.5-4.8,1.5-5.8c1-1,2.6-1.5,4.7-1.5h6.1c1.1,0,2,0,2.8,0.1
	c0.7,0.1,1.4,0.3,2,0.6c0.6,0.3,1.1,0.7,1.6,1.3c0.5,0.5,1.1,1.2,1.7,2.1L330.2,76c0.2,0.3,0.5,0.5,0.9,0.5h0.6
	c0.4,0,0.6-0.2,0.6-0.7V39.2c0-1,0.5-1.5,1.5-1.5h7.3c1,0,1.5,0.5,1.5,1.5v40.2C342.7,82.2,342.1,84.2,341.1,85.2L341.1,85.2z
	 M364,57.6h26.1c4,0,7.1,1,9.1,3.1c2,2.1,3.1,5.1,3.1,8.9v5.6c0,3.4-1,6.2-3,8.3c-2,2.1-5.1,3.1-9.3,3.1h-38.6
	c-1.1,0-1.6-0.5-1.6-1.5v-6.6c0-1,0.5-1.5,1.6-1.5H388c1.3,0,2.3-0.3,2.9-1c0.6-0.7,0.8-1.7,0.8-2.9v-2.9c0-2.6-1.2-3.9-3.6-3.9
	h-26.1c-4,0-7.1-1-9.1-3.1c-2-2.1-3.1-5.1-3.1-8.9v-5.1c0-3.4,1-6.2,3-8.3c2-2.1,5.1-3.1,9.3-3.1H399c1,0,1.5,0.5,1.5,1.5v6.6
	c0,1-0.5,1.5-1.5,1.5h-34.9c-1.3,0-2.3,0.3-2.9,1c-0.6,0.7-0.8,1.7-0.8,2.9v2.4C360.4,56.3,361.6,57.6,364,57.6L364,57.6z"/>
<g>
	<defs>
		<path id="SVGID_1_" d="M51.3,57.7c0-9.9,8.1-17,18-17h36.8c0.4,0.7,0.8,0.3,1.1,1c0,0.1,0.1,0.1,0.1,0.2c0.7,1.4,1.4,2.9,2,4.5
			c0,0.1,0.1,0.2,0.1,0.3c0.6,1.6,1.1,3.4,1.6,5.2c0,0.1,0,0.2,0.1,0.3c0.4,1.9,0.7,3.8,0.9,5.9c0,0.1,0,0.2,0,0.3
			c0.1,1.1,0.2,2.1,0.2,3.3h-61V57.7L51.3,57.7z M47.3,60.7v1h65l0,0h-90c0.5-24.4,20.5-44,45-44c15.2,0,28.6,7.5,36.7,19H67.3
			C52.1,36.7,47.3,49.6,47.3,60.7L47.3,60.7z M82.3,68.7c0,9.9-8.1,17-18,17H28.8c-4.6-7.5-6-14.6-6.4-20h59.9V68.7L82.3,68.7z
			 M86.3,65.7L86.3,65.7h26c-1,23.9-20.8,42-44.9,42c-14.7,0-27.8-7.1-36-18h35C79.9,89.7,86.3,76.7,86.3,65.7L86.3,65.7z"/>
	</defs>
	<use xlink:href="#SVGID_1_"  overflow="visible" fill-rule="evenodd" clip-rule="evenodd" fill="#00CC49"/>
	<clipPath id="SVGID_2_">
		<use xlink:href="#SVGID_1_"  overflow="visible"/>
	</clipPath>
</g>
</svg>
